#!OML:ASF E:\emotionWalksFemale\Project 1\Capture day 1\Session 1\Female1.ASF
:FULLY-SPECIFIED
:DEGREES
2084
root 10.3675 15.4974 -7.55688 2.15283 4.32044 1.96317
lowerback 6.86953 -0.618986 0.613383
upperback -2.18175 -0.571657 3.35656
thorax -6.11068 -0.234656 3.23491
lowerneck -5.07061 -6.7595 -6.73554
upperneck 36.9954 -14.9424 16.0562
head 15.9166 -5.52847 5.91875
rclavicle -2.13694e-015 3.33958e-014
rhumerus -39.9822 -0.0102779 -80.6854
rradius 32.3899
rwrist 15.5752
rhand -6.17656 -50.4362
rfingers 7.12502
rthumb 19.6626 -79.4618
lclavicle -2.13694e-015 3.33958e-014
lhumerus -37.9992 0.536836 90.6362
lradius 34.7987
lwrist -15.1051
lhand 4.74951 -29.154
lfingers 7.12502
lthumb 30.131 -1.59049
rfemur -20.4492 17.2368 21.7333
rtibia 23.284
rfoot -18.8139 -30.7302
rtoes -3.00771
lfemur -1.69655 -1.39431 -27.9641
ltibia 43.9298
lfoot -1.2553 0.584163
ltoes 8.81953
2085
root 10.3587 15.5044 -7.46992 2.17472 4.2768 1.69242
lowerback 6.81792 -0.556687 1.13511
upperback -2.03659 -0.443077 3.41367
thorax -5.93841 -0.191371 2.98078
lowerneck -5.37185 -6.79809 -6.64332
upperneck 36.9623 -14.9531 15.9279
head 15.9483 -5.51573 5.82732
rclavicle 1.36664e-014 7.95139e-015
rhumerus -39.5641 -0.410272 -80.3395
rradius 31.8362
rwrist 16.8221
rhand -6.39733 -49.5515
rfingers 7.12502
rthumb 19.4504 -78.5987
lclavicle 1.36664e-014 7.95139e-015
lhumerus -37.6538 0.300128 90.6695
lradius 35.1972
lwrist -14.7574
lhand 3.22382 -29.9088
lfingers 7.12502
lthumb 28.6744 -2.08948
rfemur -19.8888 17.0302 22.1921
rtibia 22.9167
rfoot -19.5807 -30.3051
rtoes -1.95713
lfemur -2.24406 -0.984825 -27.4085
ltibia 45.1145
lfoot 0.121492 0.0196811
ltoes 7.44941
2086
root 10.3357 15.5102 -7.3716 2.075 4.21576 1.39423
lowerback 6.75406 -0.787816 1.02912
upperback -2.25024 -0.72426 3.95983
thorax -6.10948 -0.312515 3.65349
lowerneck -4.56995 -6.41144 -7.4958
upperneck 37.2185 -14.1652 15.688
head 15.7721 -5.36272 6.04967
rclavicle -1.08586e-014 1.27222e-014
rhumerus -39.9107 0.675129 -79.9231
rradius 31.8158
rwrist 17.2128
rhand -5.98423 -49.4592
rfingers 7.12502
rthumb 19.8475 -78.4657
lclavicle -1.08586e-014 1.27222e-014
lhumerus -38.3241 1.6657 90.801
lradius 35.5948
lwrist -14.7639
lhand 0.412821 -30.5333
lfingers 7.12502
lthumb 25.9857 -2.28998
rfemur -19.1605 17.2617 22.7345
rtibia 22.5156
rfoot -20.2305 -30.2902
rtoes -1.66152
lfemur -2.7157 -0.528589 -26.7239
ltibia 46.3544
lfoot 1.54295 -0.778698
ltoes 4.88801
2087
root 10.3266 15.5191 -7.28758 2.1363 4.27985 1.27355
lowerback 6.71574 -0.496722 1.73493
upperback -2.08349 -0.299398 3.59645
thorax -5.9391 -0.138559 2.81685
lowerneck -5.15029 -6.75994 -6.63793
upperneck 37.2453 -14.779 15.5087
head 15.9515 -5.48315 5.69058
rclavicle -1.2424e-016 2.38542e-014
rhumerus -39.6026 -0.971991 -79.7271
rradius 31.6993
rwrist 17.5024
rhand -6.08625 -49.8173
rfingers 7.12502
rthumb 19.7494 -78.834
lclavicle -1.2424e-016 2.38542e-014
lhumerus -37.608 0.646987 90.7319
lradius 35.5951
lwrist -14.6385
lhand -1.75181 -31.4664
lfingers 7.12502
lthumb 23.9114 -2.93509
rfemur -18.654 16.9523 23.0338
rtibia 22.2239
rfoot -20.0475 -30.1617
rtoes -3.56488
lfemur -3.40163 -0.260348 -26.3164
ltibia 47.6021
lfoot 2.88475 -1.39699
ltoes 2.98336
2088
root 10.3145 15.5244 -7.20196 2.09664 4.3556 1.0972
lowerback 6.75211 -0.427434 2.20649
upperback -2.07055 -0.165299 3.55125
thorax -5.95305 -0.0906704 2.4883
lowerneck -4.90063 -6.70981 -6.23626
upperneck 37.3248 -14.6592 15.2017
head 15.831 -5.41334 5.50771
rclavicle 6.03808e-015 -3.18055e-015
rhumerus -39.5777 -1.52279 -79.461
rradius 31.267
rwrist 18.5918
rhand -7.2445 -49.233
rfingers 7.12502
rthumb 18.6357 -78.3603
lclavicle 6.03808e-015 -3.18055e-015
lhumerus -37.4642 0.416021 90.7508
lradius 35.9801
lwrist -14.2024
lhand -2.77595 -32.1547
lfingers 7.12502
lthumb 22.929 -3.49815
rfemur -18.0677 16.6259 23.4386
rtibia 21.9528
rfoot -20.1451 -29.9704
rtoes -4.45198
lfemur -3.99439 -0.023432 -25.8271
ltibia 48.896
lfoot 4.08376 -1.82804
ltoes 4.05001
2089
root 10.3027 15.5281 -7.11516 1.96737 4.47702 1.05764
lowerback 6.94662 -0.48927 2.37696
upperback -2.15463 -0.212041 3.66879
thorax -6.15306 -0.117582 2.52645
lowerneck -4.49429 -6.63232 -6.57264
upperneck 37.2679 -14.488 15.2626
head 15.7069 -5.40325 5.63462
rclavicle -1.01877e-015 -1.27222e-014
rhumerus -39.593 -1.47582 -79.0863
rradius 30.6978
rwrist 19.549
rhand -8.24535 -48.5042
rfingers 7.12502
rthumb 17.6728 -77.7211
lclavicle -1.01877e-015 -1.27222e-014
lhumerus -37.7846 0.165524 91.0092
lradius 36.8632
lwrist -13.0749
lhand -3.6389 -32.3083
lfingers 7.12502
lthumb 22.1007 -3.55131
rfemur -17.3994 16.1667 23.7254
rtibia 21.7162
rfoot -20.3899 -29.6816
rtoes -4.90689
lfemur -4.46667 0.184882 -25.4662
ltibia 50.1956
lfoot 5.21877 -2.36969
ltoes 4.13464
2090
root 10.2933 15.5345 -7.03295 1.8802 4.50865 0.997309
lowerback 7.16738 -0.51866 2.56924
upperback -2.23761 -0.210296 3.79168
thorax -6.36883 -0.121552 2.55316
lowerneck -4.23518 -6.53176 -6.73044
upperneck 37.3254 -14.2533 15.1081
head 15.6227 -5.35115 5.64297
rclavicle 1.2424e-017 -1.27222e-014
rhumerus -39.5357 -1.57386 -78.6488
rradius 30.1608
rwrist 20.2251
rhand -8.39367 -48.5021
rfingers 7.12502
rthumb 17.53 -77.7317
lclavicle 1.2424e-017 -1.27222e-014
lhumerus -37.9047 -0.197698 91.2974
lradius 37.5515
lwrist -11.9313
lhand -4.76379 -32.4916
lfingers 7.12502
lthumb 21.0203 -3.6108
rfemur -16.797 15.7691 23.9875
rtibia 21.4557
rfoot -20.1868 -29.4868
rtoes -6.38999
lfemur -5.04002 0.409785 -25.1029
ltibia 51.5171
lfoot 6.37459 -3.00015
ltoes 2.52558
2091
root 10.2818 15.543 -6.9489 1.81106 4.4681 0.794798
lowerback 7.2028 -0.53001 2.82109
upperback -2.23289 -0.186927 3.9891
thorax -6.38658 -0.115527 2.61727
lowerneck -4.2291 -6.51383 -6.86311
upperneck 37.5606 -14.1041 14.7425
head 15.6816 -5.33657 5.54131
rclavicle -1.46479e-014 2.38542e-014
rhumerus -39.3194 -1.55371 -78.2083
rradius 29.7512
rwrist 20.9472
rhand -8.46711 -48.8107
rfingers 7.12502
rthumb 17.4593 -78.0466
lclavicle -1.46479e-014 2.38542e-014
lhumerus -37.8595 -0.10232 91.5023
lradius 38.0337
lwrist -11.3197
lhand -5.8141 -33.1351
lfingers 7.12502
lthumb 20.011 -4.14549
rfemur -16.2143 15.6722 24.3721
rtibia 21.1981
rfoot -20.4218 -29.3794
rtoes -7.10557
lfemur -5.67267 0.641549 -24.5847
ltibia 52.8248
lfoot 7.49651 -3.64365
ltoes 1.66135
2092
root 10.2692 15.5498 -6.86348 1.67799 4.5184 0.573728
lowerback 7.2026 -0.527884 3.11652
upperback -2.128 -0.152445 4.12338
thorax -6.27807 -0.106691 2.586
lowerneck -4.30531 -6.57019 -6.88982
upperneck 37.738 -14.1165 14.4866
head 15.7663 -5.36181 5.4377
rclavicle 4.63417e-015 1.59028e-015
rhumerus -38.9079 -1.59508 -77.9167
rradius 29.2278
rwrist 21.4084
rhand -8.84829 -49.619
rfingers 7.12502
rthumb 17.0925 -78.8871
lclavicle 4.63417e-015 1.59028e-015
lhumerus -37.7403 -0.0801137 91.6719
lradius 38.4875
lwrist -10.8498
lhand -6.50294 -33.7124
lfingers 7.12502
lthumb 19.3488 -4.65501
rfemur -15.516 15.9771 24.7554
rtibia 20.9092
rfoot -21.9333 -29.289
rtoes -4.72143
lfemur -6.29295 0.760615 -24.0403
ltibia 54.1222
lfoot 8.44539 -4.36945
ltoes 0.82374
2093
root 10.2586 15.5554 -6.78431 1.52117 4.71588 0.513374
lowerback 7.35712 -0.543236 3.36607
upperback -2.03789 -0.144047 4.11842
thorax -6.27273 -0.111959 2.44015
lowerneck -4.33906 -6.55702 -6.78464
upperneck 37.7006 -14.0991 14.4848
head 15.7419 -5.33638 5.4169
rclavicle -2.21396e-014 1.59028e-015
rhumerus -38.6442 -2.01441 -77.6511
rradius 28.743
rwrist 21.8622
rhand -9.44168 -50.2103
rfingers 7.12502
rthumb 16.5212 -79.5269
lclavicle -2.21396e-014 1.59028e-015
lhumerus -37.5131 -0.421281 91.8231
lradius 38.987
lwrist -10.3604
lhand -7.13941 -33.779
lfingers 7.12502
lthumb 18.7367 -4.66138
rfemur -14.7624 16.262 24.9621
rtibia 20.5865
rfoot -23.2754 -29.265
rtoes -2.04595
lfemur -6.92835 0.663961 -23.6947
ltibia 55.4131
lfoot 9.4891 -4.95665
ltoes 0.71326
2094
root 10.2483 15.5612 -6.70696 1.4667 4.82899 0.47874
lowerback 7.43089 -0.558825 3.5111
upperback -2.04489 -0.139626 4.20907
thorax -6.32362 -0.113503 2.45529
lowerneck -4.25506 -6.48706 -6.80211
upperneck 37.6925 -13.9192 14.327
head 15.665 -5.28067 5.37841
rclavicle -1.66979e-014 5.24792e-014
rhumerus -38.47 -2.25089 -77.221
rradius 28.3693
rwrist 22.3387
rhand -10.8681 -48.3636
rfingers 7.12502
rthumb 15.1475 -77.7892
lclavicle -1.66979e-014 5.24792e-014
lhumerus -37.4643 -0.606743 92.0724
lradius 39.6966
lwrist -9.93088
lhand -7.81828 -33.759
lfingers 7.12502
lthumb 18.0837 -4.57967
rfemur -14.1729 16.1494 25.1626
rtibia 20.2834
rfoot -22.8139 -29.4165
rtoes -3.22244
lfemur -7.64364 0.638885 -23.3744
ltibia 56.6974
lfoot 10.8399 -5.48113
ltoes 1.59147
